<?xml version="1.0" encoding="UTF-8"?>
<svg width="30px" height="29px" viewBox="0 0 30 29" version="1.1" xmlns="http://www.w3.org/2000/svg" xmlns:xlink="http://www.w3.org/1999/xlink">
    <title>Group 9</title>
    <g id="Layouts" stroke="none" stroke-width="1" fill="none" fill-rule="evenodd">
        <g id="17-debito-desk-payment-d" transform="translate(-578.000000, -747.000000)" fill="#EF0000">
            <g id="Group-9" transform="translate(578.000000, 747.000000)">
                <path d="M21.5746168,13.0817518 C21.506126,12.0543891 21.2321626,11.0270264 20.6842358,10.1366454 L16.0268582,1.98623457 C15.684404,1.36981694 15.4104406,0.684908471 15.2734589,0 L15.0679864,0.342454236 C13.903642,2.3286888 13.903642,4.86285014 15.0679864,6.84908471 L18.834983,13.3557152 C19.9993274,15.3419498 19.9993274,17.8761111 18.834983,19.8623457 L18.6295104,20.2047999 C18.4925287,19.5198914 18.2185653,18.834983 17.8761111,18.2185653 L14.4515687,12.2598616 L12.2598616,8.42437419 C11.9174074,7.80795657 11.643444,7.1230481 11.5064623,6.43813963 L11.3009898,6.78059386 C10.1366454,8.76682843 10.1366454,11.2324989 11.3009898,13.2872243 L11.3009898,13.2872243 L15.0679864,19.7938548 C16.2323308,21.7800894 16.2323308,24.3142507 15.0679864,26.3004853 L14.8625138,26.6429395 C14.7255321,25.9580311 14.4515687,25.2731226 14.1091145,24.656705 L9.38324605,16.5062942 C8.76682843,15.4104406 8.49286504,14.1776054 8.49286504,12.9447701 C3.4930332,14.2460962 0,17.0542209 0,20.2732907 C0,24.7936867 6.71210302,28.4237015 14.9994955,28.4237015 C23.286888,28.4237015 29.998991,24.7936867 29.998991,20.2732907 C30.0674819,17.1912026 26.6429395,14.3830779 21.5746168,13.0817518 Z" id="Path"></path>
            </g>
        </g>
    </g>
</svg>