<svg xmlns="http://www.w3.org/2000/svg" width="100" height="29" viewBox="0 0 100 29">
    <g fill="none" fill-rule="nonzero">
        <path fill="#FFF" d="M58.234 5.831h3.464c-.075-.817-.656-1.431-1.693-1.431-.936 0-1.594.588-1.77 1.431zm7.304 2.139h-7.304c.204.89 1.179 1.392 2.083 1.392 1.062 0 1.844-.135 2.405-.883l2.667 2.536c-1.466 1.576-3.3 1.886-5.027 1.886-1.717 0-3.141-.525-4.272-1.552-1.13-1.028-1.694-2.443-1.694-4.224 0-1.759.52-3.174 1.582-4.27 1.062-1.118 2.44-1.666 4.113-1.666 1.74 0 3.096.548 4.045 1.666.949 1.12 1.424 2.466 1.424 4.064l-.022 1.05zm14.199 13.402h3.465c-.076-.818-.658-1.43-1.695-1.43-.936 0-1.593.588-1.77 1.43zm7.303 2.14h-7.304c.203.89 1.18 1.391 2.083 1.391 1.062 0 1.843-.135 2.404-.882l2.667 2.536c-1.465 1.576-3.299 1.885-5.026 1.885-1.718 0-3.14-.524-4.271-1.552-1.13-1.028-1.695-2.443-1.695-4.224 0-1.758.52-3.173 1.582-4.27 1.062-1.118 2.44-1.666 4.113-1.666 1.74 0 3.096.548 4.045 1.667.95 1.119 1.424 2.465 1.424 4.064l-.023 1.05h.001zm-69.2-16.52h1.256c1.274 0 2.003-.582 2.003-1.594 0-.902-.786-1.484-2.003-1.484H17.84V6.99zm3.486 8.127l-2.747-4.742h-.729v4.742h-4.38V.505h6.019c3.856 0 6.065 1.88 6.065 5.157 0 1.893-.743 3.308-2.208 4.203l-.137.084 3.048 5.17h-4.931zm-4.993 9.24c-1.06 0-2.004-.81-2.004-1.926 0-1.128.944-1.948 2.004-1.948 1.077 0 2.003.8 2.003 1.948 0 1.152-.91 1.926-2.003 1.926zm1.773-7.435c-1.457-.289-2.261-.242-3.603.054-2.413.645-4.206 2.546-4.206 5.608 0 3.843 2.914 5.856 6.115 5.856 3.202 0 5.956-2.013 5.956-5.856 0-3.152-1.75-5.074-4.262-5.662zm9.194 1.142c.298-.613 1.435-1.336 3.029-1.336 1.313 0 2.359.456 3.024 1.318l.118.152.127-.144c.794-.908 1.704-1.295 3.043-1.295 1.264 0 4.205.483 4.205 4.96v6.432h-4.43V22.11c0-.948-.402-1.43-1.194-1.43-.79 0-.947.5-.999.664-.136.493-.16.774-.16 1.372v5.436h-4.365V22.11c0-.948-.41-1.43-1.216-1.43-.458 0-.757.225-.874.418-.083.125-.145.352-.184.512-.078.457-.078.62-.078 1.106v5.436h-4.244V17.02h4.201l-.003 1.046zm33.022 10.212c-2.924 0-4.602-1.482-4.602-4.352v-3.074h-1.14V17.02h1.14v-3.032h4.363v3.031h1.72v3.832h-1.72v2.787c0 .54.228.772.764.772h1.383v3.812l-.255.01c-.443.02-1.037.046-1.653.046z"/>
        <path fill="#FFF" d="M0 13.538v4.225h3.746v10.389h4.252V17.764h3.746v-4.225H0zm52.109 1.71c-2.922 0-4.598-1.48-4.598-4.349V7.828h-1.137V3.999h1.137V.97h4.36V4h1.72v3.828h-1.72v2.784c0 .54.228.771.763.771h1.381v3.809l-.253.011c-.55.027-1.102.042-1.653.045zm-8.061-.008c-2.922 0-4.598-1.482-4.598-4.35V7.82h-1.137V3.99h1.137V.962h4.36V3.99h1.719v3.83h-1.72v2.784c0 .54.23.77.765.77h1.38v3.81l-.253.01c-.443.02-1.037.046-1.653.046zm3.582 5.502c-.562 0-1.035.2-1.368.58-.301.352-.463.8-.456 1.264 0 1.21.917 1.843 1.824 1.843.561 0 1.034-.2 1.368-.58.294-.335.456-.783.456-1.263 0-1.21-.917-1.844-1.824-1.844zm-1.15 7.7c-.75 0-1.536-.228-2.274-.658-1.646-.962-2.628-2.91-2.627-5.21.002-2.29.983-4.23 2.627-5.187.737-.43 1.52-.657 2.261-.657 1.052 0 2.011.445 2.775 1.288l.276.304v-1.277h4.224v11.093h-4.224V26.89l-.275.296c-.76.822-1.715 1.256-2.763 1.256zM70.648 5.298c.294-.672 1.58-1.601 2.853-1.601 2.608 0 4.104 1.824 4.104 5.004v6.418H73.21V9.068c0-.932-.398-1.406-1.184-1.406-.824 0-1.334.352-1.334 2.098v5.36h-4.4V4.01h4.357V5.3h-.001zm18.88 18.247c-1.131-.7-1.868-1.514-1.868-2.858 0-1.16.477-2.111 1.418-2.824.904-.686 1.77-1.065 3.061-1.125 1.672-.078 2.885.29 4.387 1.07l.316.214-1.595 2.654c-1.748-.707-2.653-.9-3.288-.777-.742.143-.635.87-.087.944.548.074 1.422-.164 3.07.427 1.432.577 2.28 1.517 2.28 3.118 0 1.21-.48 2.214-1.428 2.985-.896.747-2.074 1.127-3.499 1.127-1.848 0-3.345-.392-4.687-1.28l-.253-.18 1.748-2.915c2.008 1.3 3.046 1.105 3.442 1.075.868-.067.962-1.038.244-1.022-.552.013-1.643.128-3.26-.633h-.001zM33.65 3.89c-1.458-.288-2.437-.241-3.777.055-2.413.645-4.205 2.544-4.205 5.605 0 3.84 2.802 5.853 6.2 5.853 3.4 0 6.042-2.012 6.042-5.853 0-3.152-1.75-5.072-4.26-5.66z"/>
        <path fill="#0AC855" d="M35.086 12.732c-1.533.082-1.846-1.69-2.448-1.678-.256.006-.457.276-.37.592.05.173.185.428.27.585.301.557-.144 1.187-.664 1.24-.864.088-1.224-.417-1.202-.936.025-.582.514-1.177.013-1.43-.526-.266-.952.772-1.455 1.003-.455.21-1.086.048-1.31-.463-.158-.359-.129-1.048.573-1.312.437-.165 1.415.215 1.465-.266.058-.554-1.026-.6-1.353-.734-.578-.235-.919-.739-.651-1.278.2-.405.79-.57 1.24-.392.539.212.626.777.902 1.012.238.203.563.227.776.088.158-.102.21-.328.15-.533-.078-.274-.287-.445-.49-.612-.362-.298-.874-.553-.565-1.365.254-.666.998-.69.998-.69a.96.96 0 0 1 .776.251c.288.26.344.608.296.98-.045.338-.163.634-.225.97-.072.39.134.782.526.797.516.02.67-.38.733-.634.092-.371.214-.716.555-.933.49-.312 1.17-.243 1.484.356.25.474.17 1.126-.213 1.482-.172.16-.378.216-.602.218-.32.002-.64-.006-.937.145-.203.103-.29.271-.29.496 0 .22.112.363.295.456.346.176.726.211 1.099.277.54.096 1.015.288 1.32.794l.008.014c.35.6-.016 1.464-.704 1.5"/>
        <path fill="#FA320A" d="M75.19 21.287c-.718-3.005-3.285-4.505-6.27-4.12l-.364.047c-.034-.296.122-.736.542-.8a.064.064 0 0 0 .035-.108c-.635-.601-1.836-.295-2.32.798L65.94 15.8l-.791.66s.454.407 1.03.915c-.85-.33-2.048.157-2.57 1.157-.026.051.022.109.076.09.488-.165.973-.125 1.774-.195-.13.045-.32.168-.474.295-1.603 1.248-2.449 3.158-1.886 5.514.798 3.338 4.264 4.71 7.381 3.95 3.117-.76 5.508-3.56 4.71-6.899"/>
        <path fill="#FFF" d="M98.38 16.796v.303h.16c.16 0 .24-.053.24-.157 0-.097-.082-.146-.24-.146h-.16zm.396.938l-.232-.337h-.165v.337h-.328v-1.226h.546c.29 0 .517.142.517.434a.406.406 0 0 1-.25.401l.285.391h-.373zm-.914.123c.184.19.41.283.677.283.27 0 .499-.093.682-.283a.96.96 0 0 0 .28-.704.971.971 0 0 0-.28-.708.9.9 0 0 0-.682-.294.896.896 0 0 0-.677.294.984.984 0 0 0-.276.708c0 .278.092.513.276.704zm-.256-1.662c.256-.264.566-.396.933-.396.368 0 .682.132.939.396.256.264.386.582.386.958 0 .371-.13.689-.386.952-.256.26-.572.392-.939.392a1.264 1.264 0 0 1-.933-.392 1.33 1.33 0 0 1-.377-.952c0-.376.125-.694.377-.958z"/>
    </g>
</svg>
